<svg xmlns="http://www.w3.org/2000/svg" width="16" height="16" viewBox="0 0 16 16" fill="none">
  <g clip-path="url(#clip0_1_242)">
    <path d="M15.1533 15.1533L1.84667 1.84668L1.33333 1.33335L0.846667 0.84668L0 1.69335L2.92667 4.62001L4.4 7.72668L3.5 9.36001C3.39333 9.54668 3.33333 9.76668 3.33333 10C3.33333 10.7333 3.93333 11.3333 4.66667 11.3333H9.64L10.56 12.2533C10.2267 12.4933 10.0067 12.8867 10.0067 13.3333C10.0067 14.0667 10.6 14.6667 11.3333 14.6667C11.78 14.6667 12.1733 14.4467 12.4133 14.1067L14.3067 16L15.1533 15.1533ZM4.94667 10C4.85333 10 4.78 9.92668 4.78 9.83335L4.8 9.75335L5.4 8.66668H6.97333L8.30667 10H4.94667ZM10.3667 8.66668C10.8667 8.66668 11.3067 8.39335 11.5333 7.98001L13.92 3.65335C13.9733 3.56001 14 3.44668 14 3.33335C14 2.96668 13.7 2.66668 13.3333 2.66668H4.36L10.3667 8.66668ZM4.66667 12C3.93333 12 3.34 12.6 3.34 13.3333C3.34 14.0667 3.93333 14.6667 4.66667 14.6667C5.4 14.6667 6 14.0667 6 13.3333C6 12.6 5.4 12 4.66667 12Z" fill="black"/>
  </g>
  <defs>
    <clipPath id="clip0_1_242">
      <rect width="16" height="16" fill="white"/>
    </clipPath>
  </defs>
</svg>