<svg xmlns="http://www.w3.org/2000/svg" width="16" height="16" viewBox="0 0 16 16" fill="none">
  <g clip-path="url(#clip0_1_152)">
    <path d="M7.33335 5.99999H8.66669V3.99999H10.6667V2.66666H8.66669V0.666656H7.33335V2.66666H5.33335V3.99999H7.33335V5.99999ZM4.66669 12C3.93335 12 3.34002 12.6 3.34002 13.3333C3.34002 14.0667 3.93335 14.6667 4.66669 14.6667C5.40002 14.6667 6.00002 14.0667 6.00002 13.3333C6.00002 12.6 5.40002 12 4.66669 12ZM11.3334 12C10.6 12 10.0067 12.6 10.0067 13.3333C10.0067 14.0667 10.6 14.6667 11.3334 14.6667C12.0667 14.6667 12.6667 14.0667 12.6667 13.3333C12.6667 12.6 12.0667 12 11.3334 12ZM4.78002 9.83332L4.80002 9.75332L5.40002 8.66666H10.3667C10.8667 8.66666 11.3067 8.39332 11.5334 7.97999L14.1067 3.30666L12.9467 2.66666H12.94L12.2067 3.99999L10.3667 7.33332H5.68669L5.60002 7.15332L4.10669 3.99999L3.47335 2.66666L2.84669 1.33332H0.666687V2.66666H2.00002L4.40002 7.72666L3.50002 9.35999C3.39335 9.54666 3.33335 9.76666 3.33335 9.99999C3.33335 10.7333 3.93335 11.3333 4.66669 11.3333H12.6667V9.99999H4.94669C4.86002 9.99999 4.78002 9.92666 4.78002 9.83332Z" fill="white"/>
  </g>
  <defs>
    <clipPath id="clip0_1_152">
      <rect width="16" height="16" fill="white"/>
    </clipPath>
  </defs>
</svg>